<svg width="66" height="100" viewBox="0 0 66 100" fill="none" xmlns="http://www.w3.org/2000/svg">
<path d="M27.208 19.4814C27.4388 19.4819 27.7356 19.499 28.084 19.5332C28.779 19.6015 29.6258 19.7322 30.4639 19.8945C31.3029 20.057 32.1102 20.2473 32.7285 20.4326C33.0398 20.5259 33.2832 20.6117 33.4512 20.6846C33.4521 20.685 33.4532 20.6851 33.4541 20.6855C33.47 20.7804 33.4891 20.9079 33.5039 21.0752C33.5462 21.5515 33.5684 22.2487 33.5684 23.2041V25.543L33.2646 25.7891H33.2637C32.6655 26.2727 32.1791 26.9477 32.1992 27.7793C32.2195 28.6181 32.746 29.2638 33.377 29.7041C34.1781 30.2631 35.2586 30.6244 36.3828 30.8457C37.5245 31.0705 38.7942 31.1666 40.0352 31.1436C41.2751 31.1205 42.5167 30.9778 43.5996 30.709C44.6552 30.4469 45.677 30.0373 46.3672 29.4014C46.7631 29.0365 47.2725 28.4791 47.2344 27.6973C47.1993 26.9784 46.7047 26.4247 46.2979 26.0234C45.9767 25.7066 45.9931 25.6863 45.9814 25.6426C45.9356 25.4703 45.9199 25.1567 45.9199 24.2031C45.9199 24.0019 45.9207 23.8254 45.9229 23.6709C46.1174 23.7204 46.3444 23.7802 46.6113 23.8467C47.684 24.114 49.4429 24.5439 52.335 25.249C53.2677 25.4765 55.8036 26.0796 57.9697 26.5889C60.1451 27.1003 62.3487 27.6486 62.8818 27.8086L62.8994 27.8145L62.916 27.8184C63.3423 27.9299 63.6353 28.0078 63.8564 28.0791C64.08 28.1512 64.1594 28.1959 64.1846 28.2129L64.1904 28.2236C64.217 28.272 64.2522 28.3606 64.3154 28.5586C64.3174 28.5813 64.3207 28.6116 64.3232 28.6504C64.3315 28.7743 64.3401 28.9532 64.3486 29.1885C64.3657 29.6578 64.3814 30.3236 64.3965 31.1602C64.4267 32.8318 64.4523 35.1689 64.4746 37.9531C64.5192 43.5209 64.5495 50.8654 64.5693 58.2227C64.609 72.9366 64.6094 87.6959 64.6094 88.3848C64.6094 88.5318 64.6106 88.6123 64.6074 88.7021C64.6046 88.7809 64.5991 88.8222 64.5938 88.8457C64.5895 88.864 64.5852 88.8718 64.5811 88.8789C64.5768 88.8862 64.5609 88.9057 64.5254 88.9404C63.5919 89.6257 63.1664 89.8531 58.2539 91.5146C56.5391 92.0947 51.5233 93.8132 47.1084 95.333C41.24 97.2805 38.3563 98.2205 36.8545 98.6621C36.0935 98.8859 35.7414 98.9649 35.5557 98.9902C35.4409 99.0059 35.4432 99.0015 35.2871 98.9775C34.835 98.9081 34.333 98.7786 33.9795 98.6689L33.6826 98.5693C33.6108 98.5423 33.4113 98.4845 33.2051 98.4248C32.9628 98.3547 32.6199 98.256 32.1914 98.1338C31.3333 97.8891 30.128 97.5476 28.6934 97.1416C25.8239 96.3296 22.0328 95.2603 18.2539 94.1953C14.4749 93.1303 10.7074 92.0698 7.88477 91.2754C6.47376 90.8783 5.29884 90.5477 4.47656 90.3164C4.06541 90.2007 3.74165 90.1098 3.52148 90.0479C3.41154 90.0169 3.32732 89.9925 3.27051 89.9766C3.25641 89.9726 3.24408 89.9688 3.2334 89.9658C3.05008 89.8905 2.85062 89.8195 2.66797 89.7559C2.44833 89.6794 2.24557 89.6102 2.0498 89.5361C1.85409 89.4621 1.69801 89.3953 1.58203 89.333C1.54243 89.3117 1.51556 89.292 1.49609 89.2793C1.49085 89.2453 1.48532 89.1977 1.48145 89.1309L1.47266 88.8525L1.40625 58.0596C1.38318 47.3396 1.3847 39.5823 1.41309 34.4395C1.42728 31.8674 1.44892 29.9534 1.47656 28.6514C1.4904 27.9995 1.50574 27.5077 1.52246 27.166C1.53086 26.9944 1.53914 26.8688 1.54688 26.7842C1.54857 26.7657 1.5495 26.7508 1.55078 26.7393C1.60258 26.5874 1.65555 26.4962 1.71484 26.4248C1.78234 26.3436 1.89829 26.2389 2.13379 26.1113C2.64375 25.8351 3.51743 25.5479 5.13379 25.124C9.0492 24.0975 19.4468 21.4076 23.3379 20.4141C25.1101 19.9616 26.7165 19.5458 26.8701 19.499H26.8711C26.8599 19.5025 26.9506 19.4809 27.208 19.4814Z" stroke="#1C1C1C" stroke-width="2"/>
<path d="M44.5071 0.501953C45.0384 0.54285 45.3363 0.75566 45.5413 0.967773C45.653 1.08345 45.7363 1.19711 45.8313 1.32129C45.8746 1.3779 45.9284 1.44765 45.9866 1.50879C46.041 1.56596 46.1342 1.65427 46.2659 1.70898C50.7369 3.56275 58.0664 6.0219 59.7249 6.55566C59.8485 6.62185 59.8929 6.65937 59.9192 6.69141C59.941 6.71812 59.9701 6.76399 60.0051 6.86328L60.0422 6.98145C60.1108 7.22531 60.1279 7.43927 60.0793 7.69434C60.0291 7.95824 59.9024 8.28876 59.6467 8.75781C59.0935 9.52021 58.7336 9.92743 58.429 10.1367C58.1689 10.3153 57.9416 10.3569 57.5706 10.293C57.4984 10.2806 57.2663 10.2125 56.8655 10.0781C56.4827 9.94977 55.9832 9.77442 55.4055 9.56641C54.2507 9.15058 52.7914 8.60872 51.3411 8.06641C49.8886 7.52328 48.4553 6.98296 47.3372 6.56445C46.2434 6.15508 45.4199 5.85025 45.2405 5.80078C44.4619 5.58678 43.8716 5.67299 43.4358 5.87305L43.4211 5.87988L43.4065 5.8877C43.0644 6.07293 42.8202 6.32872 42.6672 6.6377C42.5553 6.86378 42.5003 7.1025 42.4797 7.33789L42.47 7.55957L42.2444 16.3721V16.3848C42.2444 21.2176 42.3859 24.0775 42.4563 25.7627C42.4919 26.6161 42.5074 27.1338 42.4836 27.458C42.4756 27.5677 42.4615 27.6347 42.4524 27.6738C42.3311 27.7132 42.1682 27.7514 41.926 27.793C41.611 27.8471 40.8366 27.8825 39.9983 27.8711C39.1558 27.8597 38.3461 27.8016 37.9456 27.6992C37.6784 27.6308 37.525 27.5608 37.4387 27.499C37.3969 27.4691 37.3732 27.4408 37.3567 27.4141C37.5196 25.7465 37.6011 20.2381 37.6418 15.0342C37.6839 9.66377 37.6848 4.55769 37.6848 4.1582C37.6848 3.9795 37.6852 3.74993 37.7141 3.53125C37.746 3.29075 37.8001 3.1689 37.8323 3.13184C37.9457 3.00202 38.1558 2.93941 38.5598 2.93945C38.6529 2.93946 38.7468 2.94301 38.8459 2.94629C38.942 2.94946 39.0465 2.9531 39.1458 2.95312C39.3253 2.95316 39.5814 2.94387 39.803 2.8418C40.089 2.71 40.2178 2.46789 40.2844 2.28613C40.3406 2.13293 40.3869 1.91083 40.4153 1.80176C40.4849 1.53444 40.5743 1.32527 40.8557 1.16309C41.1313 1.00438 41.3508 1.03078 41.636 1.12109C41.7133 1.14559 41.7874 1.17144 41.8752 1.20215C41.9585 1.23126 42.0539 1.26445 42.1516 1.29102C42.3455 1.34372 42.5954 1.38663 42.8665 1.31836C43.0912 1.26161 43.2823 1.15167 43.4358 1.0498C43.5693 0.961165 43.7526 0.821884 43.8547 0.75C44.112 0.569022 44.2955 0.485714 44.5071 0.501953Z" fill="#1C1C1C" stroke="#1C1C1C"/>
<mask id="path-3-inside-1_3718_2139" fill="white">
<path d="M6.24323 34.6958C6.24323 32.7737 6.28156 31.3897 6.34956 31.2082C6.38326 31.1182 6.61102 30.8296 6.9486 30.9333C7.13254 30.9971 12.8411 32.6584 13.25 32.8001C13.5574 32.9066 13.5359 33.2212 13.5574 33.4891V59.1579C13.5574 79.9592 13.4975 85.5366 13.267 86.2374C12.9885 88.334 12.0145 88.5671 10.963 88.7487C9.88055 88.936 6.91214 88.023 5.56184 87.5046C4.3241 87.0899 4.89293 86.4093 4.89293 77.793V70.6415C4.89864 70.1457 4.81058 69.9157 5.1482 69.9069H5.99072C7.51544 69.9069 7.81858 69.9069 7.81858 72.404V77.4484C7.81858 80.3244 7.87642 80.9203 8.18339 81.2033C8.38413 81.3881 8.71338 81.5102 8.9148 81.4743C9.25012 81.415 9.28703 79.6704 9.34712 61.0915C9.39123 47.5383 9.33564 40.526 9.18036 40.0298C8.95013 39.2941 8.57025 39.0293 6.86212 38.4137L6.55267 38.3022L6.39795 38.2465C6.27601 38.1936 6.24793 38.1522 6.24323 38.091V34.6958Z"/>
<path d="M54.5165 34.5915C55.2592 34.391 56.7782 33.9589 57.8922 33.6317C59.0062 33.3045 59.971 33.0279 60.0363 33.0173C60.1018 33.0067 60.5731 32.9336 60.8481 33.1111C61.0776 33.3812 61.1463 33.4968 61.1555 33.6435V40.8638C61.1555 48.7722 61.5233 48.3257 60.0604 48.6626C59.6103 48.7663 59.7229 48.7663 59.1602 48.87C58.7208 48.9549 58.1456 49.165 57.9366 48.9788C57.8371 48.8902 57.7865 47.4599 57.824 45.8C57.8616 44.1404 57.8099 43.0641 57.7471 42.8656C57.5727 42.4101 57.4763 42.2486 57.2803 42.1075C57.1348 42.0273 57.0033 42.0301 56.6376 42.0797C56.2431 42.133 55.7925 42.403 55.5288 42.7441C55.1169 43.277 55.0805 43.7259 55.0258 48.9309C54.9538 55.7658 54.8439 55.4994 57.398 54.6872C60.2375 53.7842 60.0514 53.5727 59.9794 57.6212C59.9186 61.0496 59.9114 61.0942 59.4226 61.0791C59.1503 61.0706 58.9693 61.1261 59.0206 61.2026C59.0717 61.2792 58.5303 61.4911 57.8171 61.6738C55.1725 62.3512 55.1014 62.6141 55.089 71.735C55.0827 76.4344 55.1631 79.2024 55.3136 79.4613C55.4759 79.7409 55.7502 79.851 56.2041 79.819C56.5651 79.7937 57.1348 79.6619 57.3598 79.5583C57.6974 79.3509 57.6974 78.9362 57.7268 78.1303C57.7268 78.1303 57.9225 72.5268 57.9225 71.0568C57.9225 70.6734 57.8432 70.3925 57.9771 70.1622C58.2417 69.7062 60.4801 68.9535 61.0119 69.1416C61.4018 69.1488 61.0334 77.6251 61.0159 83.5186C61.0461 87.0358 60.9907 87.1832 59.4046 87.8003C55.1381 89.4604 53.5434 89.7531 52.2185 89.1195C51.4106 88.733 50.6083 88.3653 50.4958 87.9561C50.3349 87.371 50.3516 86.7911 50.3387 86.2878C50.3387 85.7789 50.1368 78.3825 50.1829 62.8051C50.2498 40.2668 50.27 39.2723 50.687 38.0782C51.2897 36.3528 52.6787 35.0882 54.5165 34.5915Z"/>
<path d="M15.4728 60.3382C15.4777 42.9597 15.5578 33.8567 15.7084 33.5979C15.9913 33.1106 16.1238 33.111 18.0597 33.6058C19.74 34.0352 20.0419 33.9038 20.0883 35.5626C20.1555 37.9671 19.6821 43.6702 19.74 53.0839C19.7126 58.4726 20.0883 82.7779 20.0883 83.1089C20.0883 83.4199 20.0883 83.6273 20.3134 83.8346C20.4811 83.9892 21.8322 84.331 22.2263 83.8346C22.4642 83.5348 22.4468 78.9185 22.4468 59.4213C22.4468 39.6114 22.5002 35.2889 22.7466 35.1006C23.1722 34.7751 26.2578 35.5694 26.7791 36.1388C27.1468 36.5403 27.1693 37.4818 27.1191 50.2832C27.2138 78.7634 26.8398 90.1589 25.4895 91.2993C24.7281 91.9424 23.5604 92.2298 21.189 91.5666C17.2645 90.4692 16.2518 90.8223 15.6891 88.9561C15.2658 87.9301 15.4656 85.9086 15.4728 60.3382Z"/>
<path d="M29.1983 65.3443C29.1365 49.8917 29.1653 37.0856 29.2625 36.8859C29.3597 36.6862 29.5123 36.523 29.6016 36.523C30.0785 36.523 33.4681 37.5325 33.9182 37.7398C34.1433 37.8435 34.2199 37.7759 34.2558 38.2582C34.6653 43.7636 34.5927 89.5173 34.1797 93.8657C34.1556 94.1192 33.9441 94.3527 33.8421 94.384C33.5045 94.4877 30.1288 93.8657 29.5661 93.6583C29.3755 93.6212 29.2972 93.4951 29.3109 93.4397L29.1983 65.3443Z"/>
<path d="M36.7193 43.1453C37.3908 39.6775 38.4351 38.8284 43.9391 37.2755C45.6893 36.7816 46.8517 37.1897 47.765 38.6183C48.1894 39.2821 48.2151 39.6951 48.2151 45.8539C48.2151 51.5215 48.1328 52.2913 47.8775 52.3856C47.3646 52.6138 46.909 52.7546 46.078 53.0074C44.0541 53.4993 44.0523 53.4959 44.0483 49.3199C44.0449 45.5172 43.8768 44.7666 43.0029 44.6505C42.4126 44.5719 41.6648 45.4023 41.3472 46.4895C41.1958 47.0077 41.1375 53.673 41.1775 65.9218C41.243 85.9648 41.1989 85.2511 42.375 85.2511C42.6604 85.2511 43.6167 85.0233 43.8568 84.7421C43.9447 84.6465 43.9665 84.4183 43.9855 83.8664C43.9724 83.5445 43.9821 80.652 44.0066 77.4382C44.046 72.322 44.0978 71.5529 44.4228 71.2535C44.6269 71.0654 44.574 71.1044 45.0946 70.9531C45.6537 70.7906 45.7697 70.7458 46.2198 70.6421C47.0075 70.4347 47.2379 70.2576 47.7942 70.3563C48.1953 70.4272 48.2182 70.8099 48.2828 78.5148C48.3686 88.7473 48.2 89.7598 46.0965 91.6357C45.5723 92.1031 43.4067 92.8289 42.0564 93.3473C41.7805 93.4532 40.5113 93.9097 40.1435 93.9693C38.6807 94.2804 38.2247 94.4776 37.4429 94.1767C36.5427 93.762 36.6552 93.6583 36.6527 91.0986C36.6496 87.9561 36.316 45.2284 36.7193 43.1453Z"/>
</mask>
<path d="M6.24323 34.6958C6.24323 32.7737 6.28156 31.3897 6.34956 31.2082C6.38326 31.1182 6.61102 30.8296 6.9486 30.9333C7.13254 30.9971 12.8411 32.6584 13.25 32.8001C13.5574 32.9066 13.5359 33.2212 13.5574 33.4891V59.1579C13.5574 79.9592 13.4975 85.5366 13.267 86.2374C12.9885 88.334 12.0145 88.5671 10.963 88.7487C9.88055 88.936 6.91214 88.023 5.56184 87.5046C4.3241 87.0899 4.89293 86.4093 4.89293 77.793V70.6415C4.89864 70.1457 4.81058 69.9157 5.1482 69.9069H5.99072C7.51544 69.9069 7.81858 69.9069 7.81858 72.404V77.4484C7.81858 80.3244 7.87642 80.9203 8.18339 81.2033C8.38413 81.3881 8.71338 81.5102 8.9148 81.4743C9.25012 81.415 9.28703 79.6704 9.34712 61.0915C9.39123 47.5383 9.33564 40.526 9.18036 40.0298C8.95013 39.2941 8.57025 39.0293 6.86212 38.4137L6.55267 38.3022L6.39795 38.2465C6.27601 38.1936 6.24793 38.1522 6.24323 38.091V34.6958Z" fill="#1C1C1C"/>
<path d="M54.5165 34.5915C55.2592 34.391 56.7782 33.9589 57.8922 33.6317C59.0062 33.3045 59.971 33.0279 60.0363 33.0173C60.1018 33.0067 60.5731 32.9336 60.8481 33.1111C61.0776 33.3812 61.1463 33.4968 61.1555 33.6435V40.8638C61.1555 48.7722 61.5233 48.3257 60.0604 48.6626C59.6103 48.7663 59.7229 48.7663 59.1602 48.87C58.7208 48.9549 58.1456 49.165 57.9366 48.9788C57.8371 48.8902 57.7865 47.4599 57.824 45.8C57.8616 44.1404 57.8099 43.0641 57.7471 42.8656C57.5727 42.4101 57.4763 42.2486 57.2803 42.1075C57.1348 42.0273 57.0033 42.0301 56.6376 42.0797C56.2431 42.133 55.7925 42.403 55.5288 42.7441C55.1169 43.277 55.0805 43.7259 55.0258 48.9309C54.9538 55.7658 54.8439 55.4994 57.398 54.6872C60.2375 53.7842 60.0514 53.5727 59.9794 57.6212C59.9186 61.0496 59.9114 61.0942 59.4226 61.0791C59.1503 61.0706 58.9693 61.1261 59.0206 61.2026C59.0717 61.2792 58.5303 61.4911 57.8171 61.6738C55.1725 62.3512 55.1014 62.6141 55.089 71.735C55.0827 76.4344 55.1631 79.2024 55.3136 79.4613C55.4759 79.7409 55.7502 79.851 56.2041 79.819C56.5651 79.7937 57.1348 79.6619 57.3598 79.5583C57.6974 79.3509 57.6974 78.9362 57.7268 78.1303C57.7268 78.1303 57.9225 72.5268 57.9225 71.0568C57.9225 70.6734 57.8432 70.3925 57.9771 70.1622C58.2417 69.7062 60.4801 68.9535 61.0119 69.1416C61.4018 69.1488 61.0334 77.6251 61.0159 83.5186C61.0461 87.0358 60.9907 87.1832 59.4046 87.8003C55.1381 89.4604 53.5434 89.7531 52.2185 89.1195C51.4106 88.733 50.6083 88.3653 50.4958 87.9561C50.3349 87.371 50.3516 86.7911 50.3387 86.2878C50.3387 85.7789 50.1368 78.3825 50.1829 62.8051C50.2498 40.2668 50.27 39.2723 50.687 38.0782C51.2897 36.3528 52.6787 35.0882 54.5165 34.5915Z" fill="#1C1C1C"/>
<path d="M15.4728 60.3382C15.4777 42.9597 15.5578 33.8567 15.7084 33.5979C15.9913 33.1106 16.1238 33.111 18.0597 33.6058C19.74 34.0352 20.0419 33.9038 20.0883 35.5626C20.1555 37.9671 19.6821 43.6702 19.74 53.0839C19.7126 58.4726 20.0883 82.7779 20.0883 83.1089C20.0883 83.4199 20.0883 83.6273 20.3134 83.8346C20.4811 83.9892 21.8322 84.331 22.2263 83.8346C22.4642 83.5348 22.4468 78.9185 22.4468 59.4213C22.4468 39.6114 22.5002 35.2889 22.7466 35.1006C23.1722 34.7751 26.2578 35.5694 26.7791 36.1388C27.1468 36.5403 27.1693 37.4818 27.1191 50.2832C27.2138 78.7634 26.8398 90.1589 25.4895 91.2993C24.7281 91.9424 23.5604 92.2298 21.189 91.5666C17.2645 90.4692 16.2518 90.8223 15.6891 88.9561C15.2658 87.9301 15.4656 85.9086 15.4728 60.3382Z" fill="#1C1C1C"/>
<path d="M29.1983 65.3443C29.1365 49.8917 29.1653 37.0856 29.2625 36.8859C29.3597 36.6862 29.5123 36.523 29.6016 36.523C30.0785 36.523 33.4681 37.5325 33.9182 37.7398C34.1433 37.8435 34.2199 37.7759 34.2558 38.2582C34.6653 43.7636 34.5927 89.5173 34.1797 93.8657C34.1556 94.1192 33.9441 94.3527 33.8421 94.384C33.5045 94.4877 30.1288 93.8657 29.5661 93.6583C29.3755 93.6212 29.2972 93.4951 29.3109 93.4397L29.1983 65.3443Z" fill="#1C1C1C"/>
<path d="M36.7193 43.1453C37.3908 39.6775 38.4351 38.8284 43.9391 37.2755C45.6893 36.7816 46.8517 37.1897 47.765 38.6183C48.1894 39.2821 48.2151 39.6951 48.2151 45.8539C48.2151 51.5215 48.1328 52.2913 47.8775 52.3856C47.3646 52.6138 46.909 52.7546 46.078 53.0074C44.0541 53.4993 44.0523 53.4959 44.0483 49.3199C44.0449 45.5172 43.8768 44.7666 43.0029 44.6505C42.4126 44.5719 41.6648 45.4023 41.3472 46.4895C41.1958 47.0077 41.1375 53.673 41.1775 65.9218C41.243 85.9648 41.1989 85.2511 42.375 85.2511C42.6604 85.2511 43.6167 85.0233 43.8568 84.7421C43.9447 84.6465 43.9665 84.4183 43.9855 83.8664C43.9724 83.5445 43.9821 80.652 44.0066 77.4382C44.046 72.322 44.0978 71.5529 44.4228 71.2535C44.6269 71.0654 44.574 71.1044 45.0946 70.9531C45.6537 70.7906 45.7697 70.7458 46.2198 70.6421C47.0075 70.4347 47.2379 70.2576 47.7942 70.3563C48.1953 70.4272 48.2182 70.8099 48.2828 78.5148C48.3686 88.7473 48.2 89.7598 46.0965 91.6357C45.5723 92.1031 43.4067 92.8289 42.0564 93.3473C41.7805 93.4532 40.5113 93.9097 40.1435 93.9693C38.6807 94.2804 38.2247 94.4776 37.4429 94.1767C36.5427 93.762 36.6552 93.6583 36.6527 91.0986C36.6496 87.9561 36.316 45.2284 36.7193 43.1453Z" fill="#1C1C1C"/>
<path d="M6.24323 34.6958C6.24323 32.7737 6.28156 31.3897 6.34956 31.2082C6.38326 31.1182 6.61102 30.8296 6.9486 30.9333C7.13254 30.9971 12.8411 32.6584 13.25 32.8001C13.5574 32.9066 13.5359 33.2212 13.5574 33.4891V59.1579C13.5574 79.9592 13.4975 85.5366 13.267 86.2374C12.9885 88.334 12.0145 88.5671 10.963 88.7487C9.88055 88.936 6.91214 88.023 5.56184 87.5046C4.3241 87.0899 4.89293 86.4093 4.89293 77.793V70.6415C4.89864 70.1457 4.81058 69.9157 5.1482 69.9069H5.99072C7.51544 69.9069 7.81858 69.9069 7.81858 72.404V77.4484C7.81858 80.3244 7.87642 80.9203 8.18339 81.2033C8.38413 81.3881 8.71338 81.5102 8.9148 81.4743C9.25012 81.415 9.28703 79.6704 9.34712 61.0915C9.39123 47.5383 9.33564 40.526 9.18036 40.0298C8.95013 39.2941 8.57025 39.0293 6.86212 38.4137L6.55267 38.3022L6.39795 38.2465C6.27601 38.1936 6.24793 38.1522 6.24323 38.091V34.6958Z" stroke="#1C1C1C" mask="url(#path-3-inside-1_3718_2139)"/>
<path d="M54.5165 34.5915C55.2592 34.391 56.7782 33.9589 57.8922 33.6317C59.0062 33.3045 59.971 33.0279 60.0363 33.0173C60.1018 33.0067 60.5731 32.9336 60.8481 33.1111C61.0776 33.3812 61.1463 33.4968 61.1555 33.6435V40.8638C61.1555 48.7722 61.5233 48.3257 60.0604 48.6626C59.6103 48.7663 59.7229 48.7663 59.1602 48.87C58.7208 48.9549 58.1456 49.165 57.9366 48.9788C57.8371 48.8902 57.7865 47.4599 57.824 45.8C57.8616 44.1404 57.8099 43.0641 57.7471 42.8656C57.5727 42.4101 57.4763 42.2486 57.2803 42.1075C57.1348 42.0273 57.0033 42.0301 56.6376 42.0797C56.2431 42.133 55.7925 42.403 55.5288 42.7441C55.1169 43.277 55.0805 43.7259 55.0258 48.9309C54.9538 55.7658 54.8439 55.4994 57.398 54.6872C60.2375 53.7842 60.0514 53.5727 59.9794 57.6212C59.9186 61.0496 59.9114 61.0942 59.4226 61.0791C59.1503 61.0706 58.9693 61.1261 59.0206 61.2026C59.0717 61.2792 58.5303 61.4911 57.8171 61.6738C55.1725 62.3512 55.1014 62.6141 55.089 71.735C55.0827 76.4344 55.1631 79.2024 55.3136 79.4613C55.4759 79.7409 55.7502 79.851 56.2041 79.819C56.5651 79.7937 57.1348 79.6619 57.3598 79.5583C57.6974 79.3509 57.6974 78.9362 57.7268 78.1303C57.7268 78.1303 57.9225 72.5268 57.9225 71.0568C57.9225 70.6734 57.8432 70.3925 57.9771 70.1622C58.2417 69.7062 60.4801 68.9535 61.0119 69.1416C61.4018 69.1488 61.0334 77.6251 61.0159 83.5186C61.0461 87.0358 60.9907 87.1832 59.4046 87.8003C55.1381 89.4604 53.5434 89.7531 52.2185 89.1195C51.4106 88.733 50.6083 88.3653 50.4958 87.9561C50.3349 87.371 50.3516 86.7911 50.3387 86.2878C50.3387 85.7789 50.1368 78.3825 50.1829 62.8051C50.2498 40.2668 50.27 39.2723 50.687 38.0782C51.2897 36.3528 52.6787 35.0882 54.5165 34.5915Z" stroke="#1C1C1C" mask="url(#path-3-inside-1_3718_2139)"/>
<path d="M15.4728 60.3382C15.4777 42.9597 15.5578 33.8567 15.7084 33.5979C15.9913 33.1106 16.1238 33.111 18.0597 33.6058C19.74 34.0352 20.0419 33.9038 20.0883 35.5626C20.1555 37.9671 19.6821 43.6702 19.74 53.0839C19.7126 58.4726 20.0883 82.7779 20.0883 83.1089C20.0883 83.4199 20.0883 83.6273 20.3134 83.8346C20.4811 83.9892 21.8322 84.331 22.2263 83.8346C22.4642 83.5348 22.4468 78.9185 22.4468 59.4213C22.4468 39.6114 22.5002 35.2889 22.7466 35.1006C23.1722 34.7751 26.2578 35.5694 26.7791 36.1388C27.1468 36.5403 27.1693 37.4818 27.1191 50.2832C27.2138 78.7634 26.8398 90.1589 25.4895 91.2993C24.7281 91.9424 23.5604 92.2298 21.189 91.5666C17.2645 90.4692 16.2518 90.8223 15.6891 88.9561C15.2658 87.9301 15.4656 85.9086 15.4728 60.3382Z" stroke="#1C1C1C" mask="url(#path-3-inside-1_3718_2139)"/>
<path d="M29.1983 65.3443C29.1365 49.8917 29.1653 37.0856 29.2625 36.8859C29.3597 36.6862 29.5123 36.523 29.6016 36.523C30.0785 36.523 33.4681 37.5325 33.9182 37.7398C34.1433 37.8435 34.2199 37.7759 34.2558 38.2582C34.6653 43.7636 34.5927 89.5173 34.1797 93.8657C34.1556 94.1192 33.9441 94.3527 33.8421 94.384C33.5045 94.4877 30.1288 93.8657 29.5661 93.6583C29.3755 93.6212 29.2972 93.4951 29.3109 93.4397L29.1983 65.3443Z" stroke="#1C1C1C" mask="url(#path-3-inside-1_3718_2139)"/>
<path d="M36.7193 43.1453C37.3908 39.6775 38.4351 38.8284 43.9391 37.2755C45.6893 36.7816 46.8517 37.1897 47.765 38.6183C48.1894 39.2821 48.2151 39.6951 48.2151 45.8539C48.2151 51.5215 48.1328 52.2913 47.8775 52.3856C47.3646 52.6138 46.909 52.7546 46.078 53.0074C44.0541 53.4993 44.0523 53.4959 44.0483 49.3199C44.0449 45.5172 43.8768 44.7666 43.0029 44.6505C42.4126 44.5719 41.6648 45.4023 41.3472 46.4895C41.1958 47.0077 41.1375 53.673 41.1775 65.9218C41.243 85.9648 41.1989 85.2511 42.375 85.2511C42.6604 85.2511 43.6167 85.0233 43.8568 84.7421C43.9447 84.6465 43.9665 84.4183 43.9855 83.8664C43.9724 83.5445 43.9821 80.652 44.0066 77.4382C44.046 72.322 44.0978 71.5529 44.4228 71.2535C44.6269 71.0654 44.574 71.1044 45.0946 70.9531C45.6537 70.7906 45.7697 70.7458 46.2198 70.6421C47.0075 70.4347 47.2379 70.2576 47.7942 70.3563C48.1953 70.4272 48.2182 70.8099 48.2828 78.5148C48.3686 88.7473 48.2 89.7598 46.0965 91.6357C45.5723 92.1031 43.4067 92.8289 42.0564 93.3473C41.7805 93.4532 40.5113 93.9097 40.1435 93.9693C38.6807 94.2804 38.2247 94.4776 37.4429 94.1767C36.5427 93.762 36.6552 93.6583 36.6527 91.0986C36.6496 87.9561 36.316 45.2284 36.7193 43.1453Z" stroke="#1C1C1C" mask="url(#path-3-inside-1_3718_2139)"/>
<path d="M5.85236 26.6159L4.65829 26.9264L4.22408 27.3404L3.78987 86.438L4.00698 88.508L34.5101 97.2019L36.5726 97.5124L62.8423 87.7835L62.408 29.5138L60.8883 28.9964L63.6021 27.4439L64.2534 28.0649L64.4705 29.2034V88.8185L63.6021 89.75L36.3555 99.3754L35.8128 99.1684L4.00698 90.0605L2.5958 89.2325L2.31372 26.9231L2.92145 26.2019L3.89842 25.2704L27.7799 18.75L33.9001 20.5072L33.4676 24.6154L32.3137 25.7693L32.5913 28.6183L37.441 30.3418L43.0858 30.8021L46.4509 28.9964L47.3161 27.0585L46.4509 25.6844L45.7753 23.8462L63.2765 27.4439L60.6712 28.9964L43.0858 34.1713L39.0693 34.9993L5.85236 26.6159Z" fill="#1C1C1C"/>
<path d="M2.92145 26.2019L4.65829 26.9264M2.92145 26.2019L3.89842 25.2704L27.7799 18.75L33.9001 20.5072L33.4676 24.6154L32.3137 25.7693L32.5913 28.6183L37.441 30.3418L43.0858 30.8021L46.4509 28.9964L47.3161 27.0585L46.4509 25.6844L45.7753 23.8462L63.2765 27.4439L60.6712 28.9964L43.0858 34.1713L39.0693 34.9993L5.85236 26.6159L4.65829 26.9264M2.92145 26.2019L2.31372 26.9231L2.5958 89.2325L4.00698 90.0605L35.8128 99.1684L36.3555 99.3754M4.65829 26.9264L4.22408 27.3404L3.78987 86.438L4.00698 88.508L34.5101 97.2019L36.5726 97.5124M36.3555 99.3754L36.5726 97.5124M36.3555 99.3754L63.6021 89.75L64.4705 88.8185V29.2034L64.2534 28.0649L63.6021 27.4439L60.8883 28.9964L62.408 29.5138L62.8423 87.7835L36.5726 97.5124" stroke="#1C1C1C"/>
</svg>
